<svg width="602" height="82" viewBox="0 0 602 82" fill="none" xmlns="http://www.w3.org/2000/svg">
<path d="M10.752 81.356C9.24533 81.356 7.62567 81.243 5.893 81.017C4.23567 80.791 2.46533 80.452 0.582001 80L1.825 61.694C2.87967 61.92 3.89667 62.033 4.876 62.033C7.96467 62.033 10.3 60.8277 11.882 58.417C13.464 55.931 14.5563 52.4657 15.159 48.021C15.837 43.5764 16.2513 38.3784 16.402 32.427L17.532 0.900024H81.264V80H59.229V13.669L64.088 18.641H32.109L36.629 13.443L36.064 31.523C35.838 39.207 35.3107 46.1377 34.482 52.315C33.6533 58.417 32.335 63.6527 30.527 68.022C28.719 72.316 26.1953 75.6307 22.956 77.966C19.792 80.226 15.724 81.356 10.752 81.356Z" fill="url(#paint0_linear_42_4)"/>
<path d="M98.636 80V18.754H119.993V50.846L145.644 18.754H165.419V80H143.949V47.795L118.524 80H98.636Z" fill="url(#paint1_linear_42_4)"/>
<path d="M195.223 80V31.071L199.856 35.817H175.448V18.754H236.242V35.817H211.834L216.58 31.071V80H195.223Z" fill="url(#paint2_linear_42_4)"/>
<path d="M275.355 81.017C268.123 81.017 261.795 79.661 256.371 76.949C251.022 74.1617 246.841 70.395 243.828 65.649C240.89 60.8277 239.421 55.366 239.421 49.264C239.421 43.162 240.852 37.738 243.715 32.992C246.653 28.1707 250.683 24.4417 255.806 21.805C260.928 19.093 266.691 17.737 273.095 17.737C279.121 17.737 284.621 18.98 289.593 21.466C294.565 23.8767 298.52 27.455 301.458 32.201C304.396 36.947 305.865 42.71 305.865 49.49C305.865 50.2434 305.827 51.1097 305.752 52.089C305.676 53.0684 305.601 53.9724 305.526 54.801H257.049V43.501H294.113L285.977 46.665C286.052 43.8777 285.525 41.467 284.395 39.433C283.34 37.399 281.833 35.817 279.875 34.687C277.991 33.557 275.769 32.992 273.208 32.992C270.646 32.992 268.386 33.557 266.428 34.687C264.544 35.817 263.075 37.4367 262.021 39.546C260.966 41.58 260.439 43.9907 260.439 46.778V50.055C260.439 53.0684 261.041 55.6674 262.247 57.852C263.527 60.0367 265.335 61.7317 267.671 62.937C270.006 64.067 272.793 64.632 276.033 64.632C279.046 64.632 281.607 64.2177 283.717 63.389C285.901 62.485 288.048 61.129 290.158 59.321L301.458 71.073C298.52 74.3124 294.904 76.7984 290.61 78.531C286.316 80.1884 281.231 81.017 275.355 81.017Z" fill="url(#paint3_linear_42_4)"/>
<path d="M350.434 81.017C343.202 81.017 336.874 79.661 331.45 76.949C326.101 74.1617 321.92 70.395 318.907 65.649C315.969 60.8277 314.5 55.366 314.5 49.264C314.5 43.162 315.931 37.738 318.794 32.992C321.732 28.1707 325.762 24.4417 330.885 21.805C336.007 19.093 341.77 17.737 348.174 17.737C354.2 17.737 359.7 18.98 364.672 21.466C369.644 23.8767 373.599 27.455 376.537 32.201C379.475 36.947 380.944 42.71 380.944 49.49C380.944 50.2434 380.906 51.1097 380.831 52.089C380.755 53.0684 380.68 53.9724 380.605 54.801H332.128V43.501H369.192L361.056 46.665C361.131 43.8777 360.604 41.467 359.474 39.433C358.419 37.399 356.912 35.817 354.954 34.687C353.07 33.557 350.848 32.992 348.287 32.992C345.725 32.992 343.465 33.557 341.507 34.687C339.623 35.817 338.154 37.4367 337.1 39.546C336.045 41.58 335.518 43.9907 335.518 46.778V50.055C335.518 53.0684 336.12 55.6674 337.326 57.852C338.606 60.0367 340.414 61.7317 342.75 62.937C345.085 64.067 347.872 64.632 351.112 64.632C354.125 64.632 356.686 64.2177 358.796 63.389C360.98 62.485 363.127 61.129 365.237 59.321L376.537 71.073C373.599 74.3124 369.983 76.7984 365.689 78.531C361.395 80.1884 356.31 81.017 350.434 81.017Z" fill="url(#paint4_linear_42_4)"/>
<path d="M432.744 57.4C430.635 58.6807 428.187 59.7354 425.399 60.564C422.612 61.3174 419.373 61.694 415.681 61.694C407.169 61.694 400.728 59.8107 396.358 56.044C392.064 52.202 389.917 46.1 389.917 37.738V18.754H411.387V36.269C411.387 39.7344 412.178 42.1827 413.76 43.614C415.342 45.0454 417.64 45.761 420.653 45.761C422.989 45.761 425.136 45.4974 427.094 44.97C429.128 44.3674 430.974 43.5764 432.631 42.597L432.744 57.4ZM431.275 80V18.754H452.632V80H431.275Z" fill="url(#paint5_linear_42_4)"/>
<path d="M511.783 80L493.138 51.411L510.427 41.241L537.095 80H511.783ZM468.843 80V18.754H490.313V80H468.843ZM483.985 58.191V41.354H506.133V58.191H483.985ZM512.574 51.75L492.46 49.716L513.026 18.754H535.739L512.574 51.75Z" fill="url(#paint6_linear_42_4)"/>
<path d="M581.078 80V68.587L579.609 65.762V44.744C579.609 41.354 578.554 38.755 576.445 36.947C574.411 35.0637 571.134 34.122 566.614 34.122C563.676 34.122 560.7 34.6117 557.687 35.591C554.674 36.495 552.112 37.7757 550.003 39.433L542.771 24.856C546.236 22.596 550.38 20.8634 555.201 19.658C560.098 18.3774 564.957 17.737 569.778 17.737C579.722 17.737 587.406 20.0347 592.83 24.63C598.329 29.15 601.079 36.269 601.079 45.987V80H581.078ZM562.998 81.017C558.101 81.017 553.958 80.1884 550.568 78.531C547.178 76.8737 544.579 74.6137 542.771 71.751C541.038 68.8884 540.172 65.6867 540.172 62.146C540.172 58.3794 541.114 55.14 542.997 52.428C544.956 49.6407 547.931 47.5314 551.924 46.1C555.917 44.5934 561.077 43.84 567.405 43.84H581.869V55.027H570.343C566.878 55.027 564.429 55.592 562.998 56.722C561.642 57.852 560.964 59.3587 560.964 61.242C560.964 63.1254 561.68 64.632 563.111 65.762C564.542 66.892 566.501 67.457 568.987 67.457C571.322 67.457 573.432 66.892 575.315 65.762C577.274 64.5567 578.705 62.7487 579.609 60.338L582.547 68.248C581.417 72.4667 579.195 75.6684 575.88 77.853C572.641 79.9624 568.347 81.017 562.998 81.017Z" fill="url(#paint7_linear_42_4)"/>
<defs>
<linearGradient id="paint0_linear_42_4" x1="-48.6568" y1="39" x2="746.959" y2="49.5694" gradientUnits="userSpaceOnUse">
<stop stop-color="#84CC16"/>
<stop offset="1" stop-color="#84CC16" stop-opacity="0.26"/>
</linearGradient>
<linearGradient id="paint1_linear_42_4" x1="-48.6568" y1="39" x2="746.959" y2="49.5694" gradientUnits="userSpaceOnUse">
<stop stop-color="#84CC16"/>
<stop offset="1" stop-color="#84CC16" stop-opacity="0.26"/>
</linearGradient>
<linearGradient id="paint2_linear_42_4" x1="-48.6568" y1="39" x2="746.959" y2="49.5694" gradientUnits="userSpaceOnUse">
<stop stop-color="#84CC16"/>
<stop offset="1" stop-color="#84CC16" stop-opacity="0.26"/>
</linearGradient>
<linearGradient id="paint3_linear_42_4" x1="-48.6568" y1="39" x2="746.959" y2="49.5694" gradientUnits="userSpaceOnUse">
<stop stop-color="#84CC16"/>
<stop offset="1" stop-color="#84CC16" stop-opacity="0.26"/>
</linearGradient>
<linearGradient id="paint4_linear_42_4" x1="-48.6568" y1="39" x2="746.959" y2="49.5694" gradientUnits="userSpaceOnUse">
<stop stop-color="#84CC16"/>
<stop offset="1" stop-color="#84CC16" stop-opacity="0.26"/>
</linearGradient>
<linearGradient id="paint5_linear_42_4" x1="-48.6568" y1="39" x2="746.959" y2="49.5694" gradientUnits="userSpaceOnUse">
<stop stop-color="#84CC16"/>
<stop offset="1" stop-color="#84CC16" stop-opacity="0.26"/>
</linearGradient>
<linearGradient id="paint6_linear_42_4" x1="-48.6568" y1="39" x2="746.959" y2="49.5694" gradientUnits="userSpaceOnUse">
<stop stop-color="#84CC16"/>
<stop offset="1" stop-color="#84CC16" stop-opacity="0.26"/>
</linearGradient>
<linearGradient id="paint7_linear_42_4" x1="-48.6568" y1="39" x2="746.959" y2="49.5694" gradientUnits="userSpaceOnUse">
<stop stop-color="#84CC16"/>
<stop offset="1" stop-color="#84CC16" stop-opacity="0.26"/>
</linearGradient>
</defs>
</svg>
