<svg width="120" height="120" viewBox="0 0 120 120" fill="none" xmlns="http://www.w3.org/2000/svg">
<rect width="120" height="120" fill="white"/>
<g filter="url(#filter0_d_42_7)">
<path d="M27.17 100.456C25.6633 100.456 24.0437 100.343 22.311 100.117C20.6537 99.891 18.8833 99.552 17 99.1L18.243 80.794C19.2977 81.02 20.3147 81.133 21.294 81.133C24.3827 81.133 26.718 79.9277 28.3 77.517C29.882 75.031 30.9743 71.5657 31.577 67.121C32.255 62.6763 32.6693 57.4783 32.82 51.527L33.95 20H97.682V99.1H75.647V32.769L80.506 37.741H48.527L53.047 32.543L52.482 50.623C52.256 58.307 51.7287 65.2377 50.9 71.415C50.0713 77.517 48.753 82.7527 46.945 87.122C45.137 91.416 42.6133 94.7307 39.374 97.066C36.21 99.326 32.142 100.456 27.17 100.456Z" fill="url(#paint0_linear_42_7)" shape-rendering="crispEdges"/>
</g>
<defs>
<filter id="filter0_d_42_7" x="7" y="10" width="106.682" height="106.456" filterUnits="userSpaceOnUse" color-interpolation-filters="sRGB">
<feFlood flood-opacity="0" result="BackgroundImageFix"/>
<feColorMatrix in="SourceAlpha" type="matrix" values="0 0 0 0 0 0 0 0 0 0 0 0 0 0 0 0 0 0 127 0" result="hardAlpha"/>
<feOffset dx="3" dy="3"/>
<feGaussianBlur stdDeviation="6.5"/>
<feComposite in2="hardAlpha" operator="out"/>
<feColorMatrix type="matrix" values="0 0 0 0 0 0 0 0 0 0 0 0 0 0 0 0 0 0 0.05 0"/>
<feBlend mode="normal" in2="BackgroundImageFix" result="effect1_dropShadow_42_7"/>
<feBlend mode="normal" in="SourceGraphic" in2="effect1_dropShadow_42_7" result="shape"/>
</filter>
<linearGradient id="paint0_linear_42_7" x1="8.28519" y1="58.1" x2="127.386" y2="58.3368" gradientUnits="userSpaceOnUse">
<stop stop-color="#84CC16"/>
<stop offset="1" stop-color="#84CC16" stop-opacity="0.26"/>
</linearGradient>
</defs>
</svg>
